<?xml version="1.0" encoding="UTF-8"?>
<svg version="1.1" xmlns="http://www.w3.org/2000/svg" width="500" height="500">
<path d="M0 0 C0.87785156 -0.00257813 1.75570313 -0.00515625 2.66015625 -0.0078125 C4.9375 0.125 4.9375 0.125 6.9375 1.125 C6.6075 3.435 6.2775 5.745 5.9375 8.125 C3.2975 8.125 0.6575 8.125 -2.0625 8.125 C-2.3925 9.445 -2.7225 10.765 -3.0625 12.125 C2.5475 12.125 8.1575 12.125 13.9375 12.125 C19.02678571 24.17857143 19.02678571 24.17857143 20.9375 30.125 C21.56978516 28.30162109 21.56978516 28.30162109 22.21484375 26.44140625 C22.76807808 24.85671808 23.32147172 23.27208552 23.875 21.6875 C24.15279297 20.88505859 24.43058594 20.08261719 24.71679688 19.25585938 C24.98427734 18.49208984 25.25175781 17.72832031 25.52734375 16.94140625 C25.77347412 16.23443604 26.01960449 15.52746582 26.27319336 14.79907227 C26.9375 13.125 26.9375 13.125 27.9375 12.125 C30.60808851 11.98384839 33.26182238 12.08252893 35.9375 12.125 C33.78463026 19.62931855 31.31001683 26.98263354 28.625 34.3125 C28.07682617 35.87387695 28.07682617 35.87387695 27.51757812 37.46679688 C25.29082263 43.52403332 23.01808822 48.93137771 17.9375 53.125 C15.48828125 54.0625 15.48828125 54.0625 13.25 54.125 C12.50363281 54.16625 11.75726563 54.2075 10.98828125 54.25 C8.9375 54.125 8.9375 54.125 5.9375 53.125 C5.89495644 51.12545254 5.89669217 49.12458364 5.9375 47.125 C7.98448414 45.07801586 12.24161241 45.42454307 14.9375 45.125 C16.34648627 41.36249927 15.4914836 39.15443721 14.06640625 35.484375 C13.65712891 34.41445313 13.24785156 33.34453125 12.82617188 32.2421875 C12.1697168 30.57542969 12.1697168 30.57542969 11.5 28.875 C11.06623047 27.74835938 10.63246094 26.62171875 10.18554688 25.4609375 C9.11259988 22.6783497 8.02962022 19.9001063 6.9375 17.125 C6.6075 17.455 6.2775 17.785 5.9375 18.125 C2.9675 18.125 -0.0025 18.125 -3.0625 18.125 C-3.0625 25.715 -3.0625 33.305 -3.0625 41.125 C-5.7025 41.125 -8.3425 41.125 -11.0625 41.125 C-11.0625 33.535 -11.0625 25.945 -11.0625 18.125 C-12.3825 18.125 -13.7025 18.125 -15.0625 18.125 C-15.0625 16.145 -15.0625 14.165 -15.0625 12.125 C-13.7425 12.125 -12.4225 12.125 -11.0625 12.125 C-11.124375 11.0525 -11.18625 9.98 -11.25 8.875 C-11.05615905 4.998181 -10.79878314 3.75993932 -8.0625 1.125 C-5.09900719 0.13716906 -3.0912337 -0.00910525 0 0 Z " fill="#FCFCFC" transform="translate(304.0625,232.875)"/>
<path d="M0 0 C0.8499353 0.00404846 1.69987061 0.00809692 2.57556152 0.01226807 C3.46996948 0.00876343 4.36437744 0.00525879 5.28588867 0.00164795 C8.25231613 -0.00717881 11.2185065 -0.00131688 14.18493652 0.00543213 C16.23995001 0.00408575 18.29496319 0.00214545 20.34997559 -0.00036621 C24.66087877 -0.00331876 28.97169919 0.00098437 33.28259277 0.01031494 C38.81791777 0.02170952 44.35304883 0.01515075 49.8883667 0.00317001 C54.13303091 -0.00404506 58.37764888 -0.00176228 62.62231445 0.0034256 C64.66373721 0.00476307 66.70516412 0.00311098 68.74658203 -0.00153351 C71.59593889 -0.00659294 74.4449784 0.00110327 77.29431152 0.01226807 C78.14424683 0.0082196 78.99418213 0.00417114 79.86987305 0 C85.70640867 0.04252928 85.70640867 0.04252928 87.93493652 2.27105713 C88.18493652 4.77105713 88.18493652 4.77105713 87.93493652 7.27105713 C85.31155643 9.89443722 83.44166187 9.51608759 79.86987305 9.54211426 C79.01993774 9.5380658 78.17000244 9.53401733 77.29431152 9.52984619 C76.39990356 9.53335083 75.50549561 9.53685547 74.58398438 9.54046631 C71.61755692 9.54929307 68.65136655 9.54343114 65.68493652 9.53668213 C63.62992303 9.53802851 61.57490986 9.53996881 59.51989746 9.54248047 C55.20899427 9.54543301 50.89817386 9.54112989 46.58728027 9.53179932 C41.05195528 9.52040473 35.51682422 9.52696351 29.98150635 9.53894424 C25.73684214 9.54615932 21.49222417 9.54387654 17.24755859 9.53868866 C15.20613584 9.53735119 13.16470893 9.53900328 11.12329102 9.54364777 C8.27393416 9.5487072 5.42489465 9.54101099 2.57556152 9.52984619 C1.72562622 9.53389465 0.87569092 9.53794312 0 9.54211426 C-5.83653562 9.49958498 -5.83653562 9.49958498 -8.06506348 7.27105713 C-8.31506348 4.77105713 -8.31506348 4.77105713 -8.06506348 2.27105713 C-5.44168339 -0.35232296 -3.57178882 0.02602667 0 0 Z " fill="#65DFE5" transform="translate(72.0650634765625,252.72894287109375)"/>
<path d="M0 0 C0.97585304 -0.00525696 0.97585304 -0.00525696 1.97142029 -0.01062012 C4.12623705 -0.01943723 6.28072666 -0.01358856 8.43554688 -0.00683594 C9.93005435 -0.0081826 11.42456141 -0.01012314 12.91906738 -0.01263428 C16.0530209 -0.0155855 19.18686049 -0.01128801 22.32080078 -0.00195312 C26.34279701 0.0094415 30.36452633 0.00288201 34.38651276 -0.00909805 C37.47310404 -0.01631674 40.5596318 -0.0140287 43.64622498 -0.00884247 C45.12943045 -0.00750599 46.61264166 -0.00915363 48.09584045 -0.01380157 C50.16691419 -0.01886705 52.23755254 -0.01115678 54.30859375 0 C55.48836792 0.00159119 56.66814209 0.00318237 57.88366699 0.00482178 C60.65429688 0.25878906 60.65429688 0.25878906 62.65429688 2.25878906 C62.90429688 4.75878906 62.90429688 4.75878906 62.65429688 7.25878906 C59.87337802 10.03970792 58.20344462 9.51232506 54.30859375 9.51757812 C53.65802505 9.52108276 53.00745636 9.5245874 52.33717346 9.52819824 C50.1823567 9.53701536 48.02786709 9.53116669 45.87304688 9.52441406 C44.3785394 9.52576072 42.88403234 9.52770126 41.38952637 9.5302124 C38.25557285 9.53316363 35.12173326 9.52886614 31.98779297 9.51953125 C27.96579674 9.50813663 23.94406742 9.51469612 19.92208099 9.52667618 C16.83548971 9.53389486 13.74896195 9.53160683 10.66236877 9.52642059 C9.1791633 9.52508412 7.69595209 9.52673175 6.2127533 9.5313797 C4.14167956 9.53644518 2.07104121 9.5287349 0 9.51757812 C-1.17977417 9.51598694 -2.35954834 9.51439575 -3.57507324 9.51275635 C-6.34570312 9.25878906 -6.34570312 9.25878906 -8.34570312 7.25878906 C-8.59570312 4.75878906 -8.59570312 4.75878906 -8.34570312 2.25878906 C-5.56478427 -0.52212979 -3.89485087 0.00525307 0 0 Z " fill="#64DDE3" transform="translate(358.345703125,256.7412109375)"/>
<path d="M0 0 C3.30520084 3.60567364 4.00618555 6.12371093 4.25 11 C4.0625 14.25 4.0625 14.25 3.0625 15.25 C1.71982587 15.33631874 0.37275678 15.35706473 -0.97265625 15.34765625 C-1.78154297 15.34443359 -2.59042969 15.34121094 -3.42382812 15.33789062 C-4.27396484 15.32951172 -5.12410156 15.32113281 -6 15.3125 C-6.85400391 15.30798828 -7.70800781 15.30347656 -8.58789062 15.29882812 C-10.70445663 15.28700373 -12.82098685 15.26906769 -14.9375 15.25 C-14.18036564 17.2601441 -14.18036564 17.2601441 -12.9375 19.25 C-9.52083333 20.33333333 -9.52083333 20.33333333 -5.9375 20.25 C-3.97318595 18.95735301 -3.97318595 18.95735301 -2.9375 17.25 C-0.02232708 18.32401108 1.84060176 19.02810176 4.0625 21.25 C1.64112047 24.53615793 -0.13366983 26.7242879 -3.9375 28.25 C-9.55686904 29.03671167 -14.16001498 28.47202478 -18.9375 25.25 C-23.00935443 21.61834605 -23.71448981 18.06438622 -24.03515625 12.81640625 C-23.82957596 7.41375622 -22.31705704 3.62955704 -18.5 -0.1875 C-12.61983839 -3.7729644 -5.87988413 -3.5029097 0 0 Z M-13.8125 5.625 C-15.12723666 7.19466014 -15.12723666 7.19466014 -14.9375 9.25 C-11.3075 9.25 -7.6775 9.25 -3.9375 9.25 C-4.5975 7.6 -5.2575 5.95 -5.9375 4.25 C-10.1484755 3.86571652 -10.1484755 3.86571652 -13.8125 5.625 Z " fill="#FCFCFC" transform="translate(228.9375,246.75)"/>
<path d="M0 0 C5.70769231 3.12307692 5.70769231 3.12307692 7 7 C7.08209792 8.77313851 7.10746294 10.54920775 7.09765625 12.32421875 C7.09443359 13.35224609 7.09121094 14.38027344 7.08789062 15.43945312 C7.07951172 16.51130859 7.07113281 17.58316406 7.0625 18.6875 C7.05798828 19.77095703 7.05347656 20.85441406 7.04882812 21.97070312 C7.03703743 24.64719085 7.02058063 27.32356777 7 30 C4.36 30 1.72 30 -1 30 C-1.33 22.74 -1.66 15.48 -2 8 C-8.54107344 8.18246165 -8.54107344 8.18246165 -10.3984375 10.515625 C-11.3008601 14.24251312 -11.47285002 17.92723168 -11.625 21.75 C-11.68300781 22.93916016 -11.68300781 22.93916016 -11.7421875 24.15234375 C-11.836108 26.10119416 -11.91912822 28.05056451 -12 30 C-14.64 30 -17.28 30 -20 30 C-20 20.43 -20 10.86 -20 1 C-17.36 1 -14.72 1 -12 1 C-11.67 1.66 -11.34 2.32 -11 3 C-10.29875 2.505 -9.5975 2.01 -8.875 1.5 C-5.48475614 -0.26882288 -3.77553457 -0.53936208 0 0 Z " fill="#FCFCFC" transform="translate(193,244)"/>
<path d="M0 0 C0 2.31 0 4.62 0 7 C2.97 7 5.94 7 9 7 C9 8.98 9 10.96 9 13 C6.03 13 3.06 13 0 13 C0.14063135 15.29199177 0.28765943 17.58359186 0.4375 19.875 C0.51871094 21.15117187 0.59992188 22.42734375 0.68359375 23.7421875 C0.79206027 26.88300152 0.79206027 26.88300152 2 29 C3.98 29 5.96 29 8 29 C8.66 30.98 9.32 32.96 10 35 C6.29740878 37.46839414 2.30022309 37.70817166 -2 37 C-5.44312714 34.8755173 -6.71617547 33.85147359 -8 30 C-8.07973476 28.66474283 -8.10771338 27.32587917 -8.09765625 25.98828125 C-8.09282227 24.85229492 -8.09282227 24.85229492 -8.08789062 23.69335938 C-8.07951172 22.90767578 -8.07113281 22.12199219 -8.0625 21.3125 C-8.05798828 20.51521484 -8.05347656 19.71792969 -8.04882812 18.89648438 C-8.0370585 16.93095743 -8.01912348 14.96546915 -8 13 C-9.32 13 -10.64 13 -12 13 C-12 11.02 -12 9.04 -12 7 C-10.68 7 -9.36 7 -8 7 C-8 5.02 -8 3.04 -8 1 C-5.23735711 0.40267181 -2.83967231 0 0 0 Z " fill="#FCFCFC" transform="translate(247,238)"/>
<path d="M0 0 C1.66611905 -0.042721 3.33382885 -0.04063832 5 0 C6.68012342 1.68012342 6.12747339 3.75087192 6.12939453 6.0546875 C6.13254669 7.13250488 6.13569885 8.21032227 6.13894653 9.32080078 C6.1369223 10.49368652 6.13489807 11.66657227 6.1328125 12.875 C6.13376923 14.0697998 6.13472595 15.26459961 6.13571167 16.49560547 C6.13639371 19.0276698 6.13453778 21.55973588 6.13037109 24.09179688 C6.12502321 27.9831126 6.13031533 31.87431289 6.13671875 35.765625 C6.13605797 38.21875026 6.13477682 40.67187544 6.1328125 43.125 C6.13584885 44.88432861 6.13584885 44.88432861 6.13894653 46.67919922 C6.13421829 48.29592529 6.13421829 48.29592529 6.12939453 49.9453125 C6.12859894 50.89937988 6.12780334 51.85344727 6.12698364 52.83642578 C6 55 6 55 5 56 C3.33382885 56.04063832 1.66611905 56.042721 0 56 C-1.24737486 53.50525029 -1.12696326 51.82222396 -1.12939453 49.03125 C-1.13254669 47.99677734 -1.13569885 46.96230469 -1.13894653 45.89648438 C-1.1369223 44.77564453 -1.13489807 43.65480469 -1.1328125 42.5 C-1.13376923 41.35337891 -1.13472595 40.20675781 -1.13571167 39.02539062 C-1.13639311 36.59765569 -1.13454135 34.16991895 -1.13037109 31.7421875 C-1.12502237 28.01558357 -1.13031735 24.28910016 -1.13671875 20.5625 C-1.13605796 18.20833307 -1.13477679 15.85416621 -1.1328125 13.5 C-1.13483673 12.37916016 -1.13686096 11.25832031 -1.13894653 10.10351562 C-1.13579437 9.06904297 -1.13264221 8.03457031 -1.12939453 6.96875 C-1.12859894 6.05544922 -1.12780334 5.14214844 -1.12698364 4.20117188 C-1 2 -1 2 0 0 Z " fill="#69DDE1" transform="translate(180,293)"/>
<path d="M0 0 C2.625 0.375 2.625 0.375 5 1 C5.02526605 8.67211202 5.04283123 16.3442134 5.05493164 24.01635742 C5.05997377 26.62866619 5.06680725 29.24097211 5.07543945 31.85327148 C5.08751036 35.59880268 5.09322935 39.34429672 5.09765625 43.08984375 C5.10281754 44.26586655 5.10797882 45.44188934 5.11329651 46.65354919 C5.11337204 47.73459427 5.11344757 48.81563934 5.11352539 49.92944336 C5.115746 50.88652695 5.11796661 51.84361053 5.12025452 52.82969666 C5 55 5 55 4 56 C2.33382885 56.04063832 0.66611905 56.042721 -1 56 C-2.24576657 53.50846686 -2.1336297 51.818732 -2.14526367 49.03125 C-2.15164352 47.99677734 -2.15802338 46.96230469 -2.16459656 45.89648438 C-2.16570938 44.77564453 -2.1668222 43.65480469 -2.16796875 42.5 C-2.17296135 40.78006836 -2.17296135 40.78006836 -2.17805481 39.02539062 C-2.18312428 36.59766034 -2.18546313 34.16992307 -2.18530273 31.7421875 C-2.18749089 28.01550918 -2.20565125 24.28912596 -2.22460938 20.5625 C-2.22754287 18.20833435 -2.22952796 15.85416729 -2.23046875 13.5 C-2.23765427 12.37916016 -2.24483978 11.25832031 -2.25224304 10.10351562 C-2.24916641 9.06904297 -2.24608978 8.03457031 -2.24291992 6.96875 C-2.24434494 6.05544922 -2.24576996 5.14214844 -2.24723816 4.20117188 C-2 2 -2 2 0 0 Z " fill="#68DBE0" transform="translate(181,170)"/>
<path d="M0 0 C2.64 0 5.28 0 8 0 C8.33 11.22 8.66 22.44 9 34 C9.99 34.33 10.98 34.66 12 35 C12.38133299 36.9914056 12.71325582 38.99279077 13 41 C12 42 12 42 8.6875 42.25 C4.87883379 41.99178534 3.59688249 41.69676259 1 39 C-0.25282725 35.24151826 -0.12381835 31.74509081 -0.09765625 27.83203125 C-0.0962413 27.03721848 -0.09482635 26.2424057 -0.09336853 25.42350769 C-0.08777378 22.88646675 -0.07522228 20.34951425 -0.0625 17.8125 C-0.05748432 16.09179815 -0.05292153 14.37109492 -0.04882812 12.65039062 C-0.03780607 8.4335597 -0.02054506 4.21679484 0 0 Z " fill="#FCFCFC" transform="translate(260,233)"/>
<path d="M0 0 C-0.59746977 5.22786049 -2.80416886 8.21047504 -6.86962891 11.52368164 C-9.11717518 13.19973535 -11.39340196 14.82578773 -13.6875 16.4375 C-14.45255859 16.98470703 -15.21761719 17.53191406 -16.00585938 18.09570312 C-17.54777073 19.19335696 -19.09580477 20.28246186 -20.64990234 21.36279297 C-22.26123755 22.48533752 -23.8600381 23.62602814 -25.44775391 24.78173828 C-26.23456543 25.33974121 -27.02137695 25.89774414 -27.83203125 26.47265625 C-28.53690674 26.9819165 -29.24178223 27.49117676 -29.96801758 28.01586914 C-32 29 -32 29 -34.19799805 28.72045898 C-36 28 -36 28 -37 27 C-37.48046875 24.765625 -37.48046875 24.765625 -37 22 C-34.79527587 19.98738876 -32.76605091 18.40146855 -30.3125 16.75 C-29.63711182 16.27763916 -28.96172363 15.80527832 -28.26586914 15.31860352 C-26.86922976 14.34430657 -25.46770698 13.37697459 -24.06152344 12.41650391 C-22.12815013 11.08805389 -20.22110014 9.72998813 -18.3203125 8.35546875 C-6.64471363 0 -6.64471363 0 0 0 Z " fill="#68DFE3" transform="translate(159,291)"/>
<path d="M0 0 C2.13671875 -0.34765625 2.13671875 -0.34765625 5 0 C7.14514959 1.80192565 8.93663684 3.51431425 10.8125 5.5625 C11.87164354 6.67383652 12.93284092 7.78321932 13.99609375 8.890625 C14.76542236 9.69790039 14.76542236 9.69790039 15.55029297 10.52148438 C17.39663952 12.40452154 19.35648121 14.11678865 21.375 15.8125 C30.37792803 23.55614582 30.37792803 23.55614582 31.875 29.4375 C31.91625 30.283125 31.9575 31.12875 32 32 C31.01 32.495 31.01 32.495 30 33 C17.48872435 26.2975309 7.87148575 14.99950214 -2 5 C-1.34 3.35 -0.68 1.7 0 0 Z " fill="#66E0E2" transform="translate(125,198)"/>
<path d="M0 0 C2.64 0 5.28 0 8 0 C8 9.57 8 19.14 8 29 C5.36 29 2.72 29 0 29 C0 19.43 0 9.86 0 0 Z " fill="#FCFCFC" transform="translate(277,245)"/>
<path d="M0 0 C5.25787966 0.17526266 5.25787966 0.17526266 8 1 C10.375 3.9375 10.375 3.9375 12 7 C12.66 7.66 13.32 8.32 14 9 C14 9.99 14 10.98 14 12 C14.99 12.33 15.98 12.66 17 13 C15.35 13.66 13.7 14.32 12 15 C10.17799867 13.25904321 8.36770425 11.50822868 6.5625 9.75 C6.04623047 9.25886719 5.52996094 8.76773438 4.99804688 8.26171875 C0.34341896 3.69835805 0.34341896 3.69835805 0 0 Z " fill="#5DE1E4" transform="translate(125,200)"/>
<path d="M0 0 C0.99 0.103125 1.98 0.20625 3 0.3125 C5 3.3125 5 3.3125 4.6875 5.9375 C4 8.3125 4 8.3125 3 9.3125 C0.0625 9.5 0.0625 9.5 -3 9.3125 C-5 7.3125 -5 7.3125 -5.25 4.8125 C-4.86676958 0.9801958 -3.75087075 0.3907157 0 0 Z " fill="#FDFDFD" transform="translate(281,232.6875)"/>
<path d="M0 0 C2.375 -0.1875 2.375 -0.1875 5 0 C5.66 0.99 6.32 1.98 7 3 C4.69 2.67 2.38 2.34 0 2 C3.04114919 6.95315883 6.59045124 10.83429549 10.75 14.875 C11.35199219 15.46796875 11.95398438 16.0609375 12.57421875 16.671875 C14.04491945 18.11923124 15.5218267 19.5602763 17 21 C16.67 21.66 16.34 22.32 16 23 C10.06 17.06 4.12 11.12 -2 5 C-1.34 3.35 -0.68 1.7 0 0 Z " fill="#77D5D7" transform="translate(125,198)"/>
<path d="M0 0 C5.39882424 4.59474404 10.71333087 9.27676273 16 14 C13 14 13 14 10 13 C7.36195411 13.39397335 7.36195411 13.39397335 5 14 C5 12.33333333 5 10.66666667 5 9 C4.02616054 7.31791365 3.02304948 5.65261839 2 4 C1.32375851 2.67149721 0.65524672 1.33898243 0 0 Z " fill="#70DFE5" transform="translate(134,203)"/>
<path d="M0 0 C0.66 0 1.32 0 2 0 C2.33 1.65 2.66 3.3 3 5 C-1.75 6.125 -1.75 6.125 -4 5 C-4.33 6.65 -4.66 8.3 -5 10 C-5.66 9.34 -6.32 8.68 -7 8 C-7.99 8 -8.98 8 -10 8 C-10 7.34 -10 6.68 -10 6 C-9.34 6 -8.68 6 -8 6 C-8 5.34 -8 4.68 -8 4 C-5.09399739 2.74335022 -3.20395416 2 0 2 C0 1.34 0 0.68 0 0 Z " fill="#5AE1E6" transform="translate(136,306)"/>
<path d="M0 0 C0.66 0 1.32 0 2 0 C3.4783226 2.95664519 3.06032783 5.74229737 3 9 C1.35 9 -0.3 9 -2 9 C-1.67 8.34 -1.34 7.68 -1 7 C-0.34 7 0.32 7 1 7 C0.67 4.69 0.34 2.38 0 0 Z " fill="#64DCDF" transform="translate(182,340)"/>
<path d="M0 0 C-0.3125 2.375 -0.3125 2.375 -1 5 C-1.99 5.66 -2.98 6.32 -4 7 C-3.67 5.35 -3.34 3.7 -3 2 C-4.98 2.33 -6.96 2.66 -9 3 C-5.73209435 0.82139623 -3.91954654 0 0 0 Z " fill="#7BDCDE" transform="translate(159,291)"/>
<path d="M0 0 C0 3 0 3 -1.75 5.25 C-2.86375 6.11625 -2.86375 6.11625 -4 7 C-5.32 6.67 -6.64 6.34 -8 6 C-5.36 4.02 -2.72 2.04 0 0 Z " fill="#74DBDA" transform="translate(144,297)"/>
</svg>
